<?xml version="1.0" encoding="UTF-8" standalone="no" ?>
<!DOCTYPE svg PUBLIC "-//W3C//DTD SVG 1.1//EN" "http://www.w3.org/Graphics/SVG/1.1/DTD/svg11.dtd">
<svg xmlns="http://www.w3.org/2000/svg" xmlns:xlink="http://www.w3.org/1999/xlink" version="1.1" width="1080" height="1080" viewBox="0 0 1080 1080" xml:space="preserve">
<desc>Created with Fabric.js 5.2.4</desc>
<defs>
</defs>
<g transform="matrix(1 0 0 1 540 540)" id="1e744051-8377-4f9b-936c-5f442a77fb08"  >
</g>
<g transform="matrix(1 0 0 1 540 540)" id="891a048c-31d5-4d87-b851-0f19b8f581b9"  >
<rect style="stroke: none; stroke-width: 1; stroke-dasharray: none; stroke-linecap: butt; stroke-dashoffset: 0; stroke-linejoin: miter; stroke-miterlimit: 4; fill: rgb(255,255,255); fill-rule: nonzero; opacity: 1; visibility: hidden;" vector-effect="non-scaling-stroke"  x="-540" y="-540" rx="0" ry="0" width="1080" height="1080" />
</g>
<g transform="matrix(2.78 0 0 2.78 558.73 521.27)"  >
<path style="stroke: none; stroke-width: 1; stroke-dasharray: none; stroke-linecap: butt; stroke-dashoffset: 0; stroke-linejoin: miter; stroke-miterlimit: 4; fill: rgb(99,115,129); fill-rule: nonzero; opacity: 0.4;" vector-effect="non-scaling-stroke"  transform=" translate(-12, -12)" d="M 16.9841 2 L 7 2 C 4.25397 2 2 4.25397 2 7.01587 L 2 17 C 2 19.746 4.25397 22 7 22 L 16.9841 22 C 19.746 22 22 19.746 22 16.9841 L 22 7.01587 C 22 4.25397 19.746 2 16.9841 2 Z" stroke-linecap="round" />
</g>
<g transform="matrix(0.5 0 0 0.5 558.74 520.54)" id="843e8608-fbac-4d6f-a035-ad6093144d38"  >
<path style="stroke: rgb(0,0,0); stroke-width: 0; stroke-dasharray: none; stroke-linecap: butt; stroke-dashoffset: 0; stroke-linejoin: miter; stroke-miterlimit: 4; fill: rgb(101,101,101); fill-rule: nonzero; opacity: 1;" vector-effect="non-scaling-stroke"  transform=" translate(-50, -50)" d="M 72.889 12.861 L 27.058999999999997 12.861 C 24.671999999999997 12.861 22.715999999999998 14.870000000000001 22.715999999999998 17.259 L 22.715999999999998 82.743 C 22.715999999999998 85.13 24.673 87.139 27.058999999999997 87.139 L 72.889 87.139 C 75.33099999999999 87.139 77.285 85.13 77.285 82.743 L 77.285 17.259 C 77.284 14.87 75.331 12.861 72.889 12.861 z M 38.301 78.725 C 38.301 79.37599999999999 37.759 79.863 37.160000000000004 79.863 L 29.940000000000005 79.863 C 29.285000000000004 79.863 28.799000000000007 79.377 28.799000000000007 78.725 L 28.799000000000007 71.50099999999999 C 28.799000000000007 70.90599999999999 29.285000000000007 70.36299999999999 29.940000000000005 70.36299999999999 L 37.160000000000004 70.36299999999999 C 37.759 70.36299999999999 38.301 70.90599999999999 38.301 71.50099999999999 L 38.301 78.725 z M 38.301 62.87 C 38.301 63.464999999999996 37.759 64.011 37.160000000000004 64.011 L 29.940000000000005 64.011 C 29.285000000000004 64.011 28.799000000000007 63.464999999999996 28.799000000000007 62.87 L 28.799000000000007 55.592999999999996 C 28.799000000000007 54.995 29.285000000000007 54.452 29.940000000000005 54.452 L 37.160000000000004 54.452 C 37.759 54.452 38.301 54.995 38.301 55.592999999999996 L 38.301 62.87 z M 38.301 46.959 C 38.301 47.556000000000004 37.759 48.098000000000006 37.160000000000004 48.098000000000006 L 29.940000000000005 48.098000000000006 C 29.285000000000004 48.098000000000006 28.799000000000007 47.556000000000004 28.799000000000007 46.959 L 28.799000000000007 39.737 C 28.799000000000007 39.086 29.285000000000007 38.598 29.940000000000005 38.598 L 37.160000000000004 38.598 C 37.759 38.598 38.301 39.086 38.301 39.737 L 38.301 46.959 z M 54.751 78.725 C 54.751 79.37599999999999 54.208999999999996 79.863 53.614 79.863 L 46.39 79.863 C 45.739 79.863 45.249 79.377 45.249 78.725 L 45.249 71.50099999999999 C 45.249 70.90599999999999 45.739000000000004 70.36299999999999 46.39 70.36299999999999 L 53.615 70.36299999999999 C 54.21 70.36299999999999 54.752 70.90599999999999 54.752 71.50099999999999 L 54.752 78.725 z M 54.751 62.87 C 54.751 63.464999999999996 54.208999999999996 64.011 53.614 64.011 L 46.39 64.011 C 45.739 64.011 45.249 63.464999999999996 45.249 62.87 L 45.249 55.592999999999996 C 45.249 54.995 45.739000000000004 54.452 46.39 54.452 L 53.615 54.452 C 54.21 54.452 54.752 54.995 54.752 55.592999999999996 L 54.752 62.87 z M 54.751 46.959 C 54.751 47.556000000000004 54.208999999999996 48.098000000000006 53.614 48.098000000000006 L 46.39 48.098000000000006 C 45.739 48.098000000000006 45.249 47.556000000000004 45.249 46.959 L 45.249 39.737 C 45.249 39.086 45.739000000000004 38.598 46.39 38.598 L 53.615 38.598 C 54.21 38.598 54.752 39.086 54.752 39.737 L 54.752 46.959 z M 71.205 78.725 C 71.205 79.37599999999999 70.66199999999999 79.863 70.063 79.863 L 62.843 79.863 C 62.192 79.863 61.701 79.377 61.701 78.725 L 61.701 71.50099999999999 C 61.701 70.90599999999999 62.191 70.36299999999999 62.843 70.36299999999999 L 70.063 70.36299999999999 C 70.662 70.36299999999999 71.205 70.90599999999999 71.205 71.50099999999999 L 71.205 78.725 z M 71.205 62.87 C 71.205 63.464999999999996 70.66199999999999 64.011 70.063 64.011 L 62.843 64.011 C 62.192 64.011 61.701 63.464999999999996 61.701 62.87 L 61.701 55.592999999999996 C 61.701 54.995 62.191 54.452 62.843 54.452 L 70.063 54.452 C 70.662 54.452 71.205 54.995 71.205 55.592999999999996 L 71.205 62.87 z M 71.205 46.959 C 71.205 47.556000000000004 70.66199999999999 48.098000000000006 70.063 48.098000000000006 L 62.843 48.098000000000006 C 62.192 48.098000000000006 61.701 47.556000000000004 61.701 46.959 L 61.701 39.737 C 61.701 39.086 62.191 38.598 62.843 38.598 L 70.063 38.598 C 70.662 38.598 71.205 39.086 71.205 39.737 L 71.205 46.959 z M 71.964 30.183 C 71.964 31.758 70.66199999999999 33.06 69.087 33.06 L 30.86 33.06 C 29.285 33.06 28.038999999999998 31.758000000000003 28.038999999999998 30.183000000000003 L 28.038999999999998 21.440000000000005 C 28.038999999999998 19.865000000000006 29.284999999999997 18.617000000000004 30.86 18.617000000000004 L 69.08699999999999 18.617000000000004 C 70.66199999999999 18.617000000000004 71.96399999999998 19.865000000000006 71.96399999999998 21.440000000000005 L 71.96399999999998 30.183 z" stroke-linecap="round" />
</g>
<g transform="matrix(0.49 0 0 0.49 558.34 522)" id="25622df4-3de7-437c-85a3-a1364b54a6a2"  >
<path style="stroke: rgb(0,0,0); stroke-width: 0; stroke-dasharray: none; stroke-linecap: butt; stroke-dashoffset: 0; stroke-linejoin: miter; stroke-miterlimit: 4; fill: rgb(101,101,101); fill-rule: nonzero; opacity: 1;" vector-effect="non-scaling-stroke"  transform=" translate(-50, -50)" d="M 72.889 12.861 L 27.058999999999997 12.861 C 24.671999999999997 12.861 22.715999999999998 14.870000000000001 22.715999999999998 17.259 L 22.715999999999998 82.743 C 22.715999999999998 85.13 24.673 87.139 27.058999999999997 87.139 L 72.889 87.139 C 75.33099999999999 87.139 77.285 85.13 77.285 82.743 L 77.285 17.259 C 77.284 14.87 75.331 12.861 72.889 12.861 z M 38.301 78.725 C 38.301 79.37599999999999 37.759 79.863 37.160000000000004 79.863 L 29.940000000000005 79.863 C 29.285000000000004 79.863 28.799000000000007 79.377 28.799000000000007 78.725 L 28.799000000000007 71.50099999999999 C 28.799000000000007 70.90599999999999 29.285000000000007 70.36299999999999 29.940000000000005 70.36299999999999 L 37.160000000000004 70.36299999999999 C 37.759 70.36299999999999 38.301 70.90599999999999 38.301 71.50099999999999 L 38.301 78.725 z M 38.301 62.87 C 38.301 63.464999999999996 37.759 64.011 37.160000000000004 64.011 L 29.940000000000005 64.011 C 29.285000000000004 64.011 28.799000000000007 63.464999999999996 28.799000000000007 62.87 L 28.799000000000007 55.592999999999996 C 28.799000000000007 54.995 29.285000000000007 54.452 29.940000000000005 54.452 L 37.160000000000004 54.452 C 37.759 54.452 38.301 54.995 38.301 55.592999999999996 L 38.301 62.87 z M 38.301 46.959 C 38.301 47.556000000000004 37.759 48.098000000000006 37.160000000000004 48.098000000000006 L 29.940000000000005 48.098000000000006 C 29.285000000000004 48.098000000000006 28.799000000000007 47.556000000000004 28.799000000000007 46.959 L 28.799000000000007 39.737 C 28.799000000000007 39.086 29.285000000000007 38.598 29.940000000000005 38.598 L 37.160000000000004 38.598 C 37.759 38.598 38.301 39.086 38.301 39.737 L 38.301 46.959 z M 54.751 78.725 C 54.751 79.37599999999999 54.208999999999996 79.863 53.614 79.863 L 46.39 79.863 C 45.739 79.863 45.249 79.377 45.249 78.725 L 45.249 71.50099999999999 C 45.249 70.90599999999999 45.739000000000004 70.36299999999999 46.39 70.36299999999999 L 53.615 70.36299999999999 C 54.21 70.36299999999999 54.752 70.90599999999999 54.752 71.50099999999999 L 54.752 78.725 z M 54.751 62.87 C 54.751 63.464999999999996 54.208999999999996 64.011 53.614 64.011 L 46.39 64.011 C 45.739 64.011 45.249 63.464999999999996 45.249 62.87 L 45.249 55.592999999999996 C 45.249 54.995 45.739000000000004 54.452 46.39 54.452 L 53.615 54.452 C 54.21 54.452 54.752 54.995 54.752 55.592999999999996 L 54.752 62.87 z M 54.751 46.959 C 54.751 47.556000000000004 54.208999999999996 48.098000000000006 53.614 48.098000000000006 L 46.39 48.098000000000006 C 45.739 48.098000000000006 45.249 47.556000000000004 45.249 46.959 L 45.249 39.737 C 45.249 39.086 45.739000000000004 38.598 46.39 38.598 L 53.615 38.598 C 54.21 38.598 54.752 39.086 54.752 39.737 L 54.752 46.959 z M 71.205 78.725 C 71.205 79.37599999999999 70.66199999999999 79.863 70.063 79.863 L 62.843 79.863 C 62.192 79.863 61.701 79.377 61.701 78.725 L 61.701 71.50099999999999 C 61.701 70.90599999999999 62.191 70.36299999999999 62.843 70.36299999999999 L 70.063 70.36299999999999 C 70.662 70.36299999999999 71.205 70.90599999999999 71.205 71.50099999999999 L 71.205 78.725 z M 71.205 62.87 C 71.205 63.464999999999996 70.66199999999999 64.011 70.063 64.011 L 62.843 64.011 C 62.192 64.011 61.701 63.464999999999996 61.701 62.87 L 61.701 55.592999999999996 C 61.701 54.995 62.191 54.452 62.843 54.452 L 70.063 54.452 C 70.662 54.452 71.205 54.995 71.205 55.592999999999996 L 71.205 62.87 z M 71.205 46.959 C 71.205 47.556000000000004 70.66199999999999 48.098000000000006 70.063 48.098000000000006 L 62.843 48.098000000000006 C 62.192 48.098000000000006 61.701 47.556000000000004 61.701 46.959 L 61.701 39.737 C 61.701 39.086 62.191 38.598 62.843 38.598 L 70.063 38.598 C 70.662 38.598 71.205 39.086 71.205 39.737 L 71.205 46.959 z M 71.964 30.183 C 71.964 31.758 70.66199999999999 33.06 69.087 33.06 L 30.86 33.06 C 29.285 33.06 28.038999999999998 31.758000000000003 28.038999999999998 30.183000000000003 L 28.038999999999998 21.440000000000005 C 28.038999999999998 19.865000000000006 29.284999999999997 18.617000000000004 30.86 18.617000000000004 L 69.08699999999999 18.617000000000004 C 70.66199999999999 18.617000000000004 71.96399999999998 19.865000000000006 71.96399999999998 21.440000000000005 L 71.96399999999998 30.183 z" stroke-linecap="round" />
</g>
</svg>